<svg width="25" height="25" xmlns="http://www.w3.org/2000/svg" viewBox="0 0 25 24.79"><defs><style>.cls-1{fill:#84796f;}</style></defs><title>address</title><g id="Layer_2" data-name="Layer 2"><g id="Desktop"><g id="Filtered_list" data-name="Filtered list"><path id="_Compound_Path_" data-name="&lt;Compound Path&gt;" class="cls-1" d="M23.91,13.32a1.17,1.17,0,0,1-.76-.3L12.5,2.61,1.85,13A1.11,1.11,0,0,1,.3,13a1.11,1.11,0,0,1,0-1.55L11.74.31a1.1,1.1,0,0,1,1.52,0L24.67,11.44a1.11,1.11,0,0,1,0,1.55A1.13,1.13,0,0,1,23.91,13.32ZM21.65,23.79V14a1,1,0,0,0-2,0v8.82h-4V16.85a1.44,1.44,0,0,0-1.44-1.44H10.36a1.44,1.44,0,0,0-1.44,1.44v5.93H5.57V14a1,1,0,0,0-2,0v9.83a1,1,0,0,0,1,1H9.84a1.09,1.09,0,0,0,1.09-1.09V17.42h2.68v6.28a1.09,1.09,0,0,0,1.09,1.09h6A1,1,0,0,0,21.65,23.79Z"/></g></g></g></svg>
