<svg xmlns="http://www.w3.org/2000/svg" viewBox="0 0 77.29 77.29"><defs><style>.cls-1{fill:#f7e7d7;}.cls-2{fill:#666;}</style></defs><title>Arrow-hide</title><g id="Layer_2" data-name="Layer 2"><g id="Desktop"><g id="Main"><path class="cls-1" d="M38.65,0A38.65,38.65,0,1,0,77.29,38.65,38.64,38.64,0,0,0,38.65,0ZM63.52,39.69a3.74,3.74,0,0,1-3.74,3.74H31.93L43.47,54.5a3.67,3.67,0,0,1,.06,5.24l-1.68,1.67a3.65,3.65,0,0,1-5.18,0l-20.3-20.3a3.65,3.65,0,0,1,0-5.18l20.3-20.28a3.65,3.65,0,0,1,5.18,0l1.68,1.67a3.67,3.67,0,0,1-.06,5.24L31.93,33.64H59.78a3.74,3.74,0,0,1,3.74,3.74Z"/><path class="cls-2" d="M63.52,37.33v2.31a3.74,3.74,0,0,1-3.73,3.75l-27.86.06L43.51,54.49a3.67,3.67,0,0,1,.07,5.24L41.9,61.41a3.65,3.65,0,0,1-5.18,0L16.37,41.17a3.65,3.65,0,0,1,0-5.18L36.62,15.66a3.65,3.65,0,0,1,5.18,0l1.69,1.67a3.67,3.67,0,0,1-.05,5.24L31.92,33.65l27.86-.06A3.74,3.74,0,0,1,63.52,37.33Z"/></g></g></g></svg>