<svg width="50" height="50" xmlns="http://www.w3.org/2000/svg" viewBox="0 0 33.36 32.51"><defs><style>.cls-1{fill:#84796f;}</style></defs><title>arrow back</title><g id="Layer_2" data-name="Layer 2"><g id="Desktop"><g id="Single_location" data-name="Single location"><path class="cls-1" d="M19.18,30.34,17.52,32A1.78,1.78,0,0,1,15,32L.52,17.52A1.78,1.78,0,0,1,.52,15L15,.52a1.78,1.78,0,0,1,2.52,0l1.65,1.65a1.79,1.79,0,0,1,0,2.55l-9,8.55H31.6A1.76,1.76,0,0,1,33.36,15v2.44a1.76,1.76,0,0,1-1.76,1.76H10.17l9,8.55A1.78,1.78,0,0,1,19.18,30.34Z"/></g></g></g></svg>
