<svg width="25" height="25" xmlns="http://www.w3.org/2000/svg" viewBox="0 0 238 317.33"><defs><style>.cls-1{fill:#e39f40;}.cls-2{fill:#fff5e9;}</style></defs><title>coffee</title><g id="Layer_2" data-name="Layer 2"><g id="Assets"><path class="cls-1" d="M119,0A119,119,0,0,0,0,119c0,76.44,85.7,171.82,99.17,186.39,5.57,6,10.23,11.94,19.83,11.94s14.26-5.89,19.83-11.94C152.3,290.82,238,195.44,238,119A119,119,0,0,0,119,0Z"/><path class="cls-2" d="M86.67,164.33h49.08a24.55,24.55,0,0,0,24.54-24.54h7.08c17.82,0,32.83-14,33.22-31.85A32.61,32.61,0,0,0,168,74.62H68.25a6.14,6.14,0,0,0-6.14,6.14v59A24.56,24.56,0,0,0,86.67,164.33ZM168.54,90.7a16.5,16.5,0,1,1-.22,33h-8v-33Zm12,98.18H49.77c-12.18,0-15.6-16.08-9.21-16.08H189.77C196.16,172.79,192.78,188.88,180.58,188.88Z"/></g></g></svg>
