<svg width="25" height="25" xmlns="http://www.w3.org/2000/svg" viewBox="0 0 35 46.67"><defs><style>.cls-1{fill:#84796f;}</style></defs><title>coffe-onecolor</title><g id="Layer_2" data-name="Layer 2"><g id="Assets"><path class="cls-1" d="M24.79,13.34H23.57v4.85h1.18a2.43,2.43,0,1,0,0-4.85Z"/><path class="cls-1" d="M17.5,0A17.5,17.5,0,0,0,0,17.5C0,28.74,12.6,42.77,14.58,44.91c.82.89,1.51,1.76,2.92,1.76s2.1-.87,2.92-1.76C22.4,42.77,35,28.74,35,17.5A17.5,17.5,0,0,0,17.5,0Zm9.06,27.78H7.32C5.53,27.78,5,25.41,6,25.41H27.91C28.85,25.41,28.35,27.78,26.56,27.78Zm-1.94-7.22h-1A3.61,3.61,0,0,1,20,24.17H12.75a3.61,3.61,0,0,1-3.61-3.61V11.88A.9.9,0,0,1,10,11H24.71a4.8,4.8,0,0,1,4.79,4.9A4.85,4.85,0,0,1,24.61,20.56Z"/></g></g></svg>
