<svg width="25" height="25" xmlns="http://www.w3.org/2000/svg" viewBox="0 0 238 317.33"><defs><style>.cls-1{fill:#973a45;}.cls-2{fill:#fff5e9;}</style></defs><title>food</title><g id="Layer_2" data-name="Layer 2"><g id="Assets"><path class="cls-1" d="M119,0A119,119,0,0,0,0,119c0,76.44,85.7,171.82,99.17,186.39,5.57,6,10.23,11.94,19.83,11.94s14.26-5.89,19.83-11.94C152.3,290.82,238,195.44,238,119A119,119,0,0,0,119,0Z"/><path class="cls-2" d="M112.36,60.13c.27,1.59,5.41,32,5.41,43.65,0,17.73-9.34,30.37-23.15,35.45l4.33,80.7a8.12,8.12,0,0,1-8.06,8.57H69.38a8.13,8.13,0,0,1-8.06-8.57l4.33-80.7c-13.84-5.08-23.15-17.76-23.15-35.45,0-11.66,5.14-42.06,5.41-43.65,1.08-6.88,15.22-7,16.09.37v47.86c.44,1.15,5.07,1.08,5.38,0,.47-8.57,2.65-47.18,2.69-48.06,1.11-7,15-7,16.09,0,.07.92,2.22,39.48,2.69,48.06.3,1.08,5,1.15,5.38,0V60.51C97.1,53.19,111.28,53.25,112.36,60.13Zm41,96.83-5.08,62.73a8.13,8.13,0,0,0,8.1,8.81h19a8.13,8.13,0,0,0,8.13-8.13V63.12A8.14,8.14,0,0,0,175.37,55C147.4,55,100.33,115.48,153.37,157Z"/></g></g></svg>
