<svg width="25" height="25" xmlns="http://www.w3.org/2000/svg" viewBox="0 0 35 46.67"><defs><style>.cls-1{fill:#84796f;}</style></defs><title>parks-onecolor</title><g id="Layer_2" data-name="Layer 2"><g id="Assets"><path class="cls-1" d="M17.5,0A17.5,17.5,0,0,0,0,17.5C0,28.74,12.6,42.77,14.58,44.91c.82.89,1.51,1.76,2.92,1.76s2.1-.87,2.92-1.76C22.4,42.77,35,28.74,35,17.5A17.5,17.5,0,0,0,17.5,0Zm8.64,23.48a5.72,5.72,0,0,1-4.4,2.31,5.59,5.59,0,0,1-1.08-.13,4.82,4.82,0,0,1-1.39-.49.64.64,0,0,0-.95.59L18.84,35a.64.64,0,0,1-.64.67h-2a.64.64,0,0,1-.64-.67l.55-10.41a.64.64,0,0,0-.84-.64,10.55,10.55,0,0,1-3.18.55A5.08,5.08,0,0,1,9.4,15.19.21.21,0,0,0,9.49,15v-.14c0-4.3,3-8.86,7.4-8.86a7.26,7.26,0,0,1,6.9,5.69.64.64,0,0,0,.31.41,7.34,7.34,0,0,1,3.77,6.41A8.29,8.29,0,0,1,26.14,23.48Z"/></g></g></svg>
