<svg width="25" height="25" xmlns="http://www.w3.org/2000/svg" viewBox="0 0 238 317.33"><defs><style>.cls-1{fill:#e95565;}.cls-2{fill:#fff5e9;}</style></defs><title>attraction</title><g id="Layer_2" data-name="Layer 2"><g id="Assets"><path class="cls-1" d="M119,0A119,119,0,0,0,0,119c0,76.44,85.7,171.82,99.17,186.39,5.57,6,10.23,11.94,19.83,11.94s14.26-5.89,19.83-11.94C152.3,290.82,238,195.44,238,119A119,119,0,0,0,119,0Z"/><path class="cls-2" d="M189.5,88v78.87a13.22,13.22,0,0,1-13.22,13.22H61.72A13.22,13.22,0,0,1,48.5,166.89V88A13.22,13.22,0,0,1,61.72,74.79H86l3.39-8.95a13.2,13.2,0,0,1,12.37-8.46h34.56a13.2,13.2,0,0,1,12.37,8.46L152,74.79h24.23A13.22,13.22,0,0,1,189.5,88Zm-37.64,39.63a33.05,33.05,0,1,0-33.05,33.05A33.08,33.08,0,0,0,151.86,127.64Zm-8.81,0a24.24,24.24,0,1,1-24.24-24.24A24.27,24.27,0,0,1,143,127.64Z"/></g></g></svg>
