<svg width="25" height="25" xmlns="http://www.w3.org/2000/svg" viewBox="0 0 35 46.67"><defs><style>.cls-1{fill:#84796f;}</style></defs><title>attraction-onecolor</title><g id="Layer_2" data-name="Layer 2"><g id="Assets"><path class="cls-1" d="M17.47,13.91a4.86,4.86,0,1,0,4.86,4.86A4.86,4.86,0,0,0,17.47,13.91Zm0,8.42A3.56,3.56,0,1,1,21,18.77,3.57,3.57,0,0,1,17.47,22.34Z"/><path class="cls-1" d="M17.5,0A17.5,17.5,0,0,0,0,17.5C0,28.74,12.6,42.77,14.58,44.91c.82.89,1.51,1.76,2.92,1.76s2.1-.87,2.92-1.76C22.4,42.77,35,28.74,35,17.5A17.5,17.5,0,0,0,17.5,0ZM27.87,24.54a1.94,1.94,0,0,1-1.94,1.94H9.08a1.94,1.94,0,0,1-1.94-1.94V12.94A1.94,1.94,0,0,1,9.08,11h3.56l.5-1.32A1.94,1.94,0,0,1,15,8.44H20a1.94,1.94,0,0,1,1.82,1.24l.5,1.32h3.56a1.94,1.94,0,0,1,1.94,1.94Z"/></g></g></svg>
