<svg width="25" height="25" xmlns="http://www.w3.org/2000/svg" viewBox="0 0 25 25"><defs><style>.cls-1{fill:#CE2439;}</style></defs><title>closed</title><g id="Layer_2" data-name="Layer 2"><g id="Desktop"><g id="Single_location" data-name="Single location"><path class="cls-1" d="M12.5,0A12.5,12.5,0,1,0,25,12.5,12.5,12.5,0,0,0,12.5,0ZM7.35,6a.66.66,0,0,1,.93,0L12,9.79a.66.66,0,0,0,.93,0L16.72,6a.66.66,0,0,1,.93,0L19,7.35a.66.66,0,0,1,0,.93L15.21,12a.66.66,0,0,0,0,.93L19,16.72a.66.66,0,0,1,0,.93L17.65,19a.66.66,0,0,1-.93,0L13,15.21a.66.66,0,0,0-.93,0L8.28,19a.66.66,0,0,1-.93,0L6,17.65a.66.66,0,0,1,0-.93L9.79,13a.66.66,0,0,0,0-.93L6,8.28a.66.66,0,0,1,0-.93Z"/></g></g></g></svg>
