<svg width="25" height="25" xmlns="http://www.w3.org/2000/svg" viewBox="0 0 35 46.67"><defs><style>.cls-1{fill:#84796f;}</style></defs><title>food-onecolor</title><g id="Layer_2" data-name="Layer 2"><g id="Assets"><path class="cls-1" d="M17.5,0A17.5,17.5,0,0,0,0,17.5C0,28.74,12.6,42.77,14.58,44.91c.82.89,1.51,1.76,2.92,1.76s2.1-.87,2.92-1.76C22.4,42.77,35,28.74,35,17.5A17.5,17.5,0,0,0,17.5,0ZM13.91,20.48l.64,11.87a1.19,1.19,0,0,1-1.19,1.26H10.2A1.19,1.19,0,0,1,9,32.34l.64-11.87a5.25,5.25,0,0,1-3.4-5.21A61.27,61.27,0,0,1,7,8.84c.16-1,2.24-1,2.37.05v7c.06.17.75.16.79,0,.07-1.26.39-6.94.4-7.07.16-1,2.21-1,2.37,0,0,.13.33,5.81.4,7.07,0,.16.73.17.79,0v-7c.13-1.08,2.21-1.07,2.37-.05a61.43,61.43,0,0,1,.8,6.42A5.26,5.26,0,0,1,13.91,20.48ZM27,32.41a1.2,1.2,0,0,1-1.2,1.2H23a1.2,1.2,0,0,1-1.19-1.3l.75-9.23c-7.8-6.1-.88-15,3.23-15A1.2,1.2,0,0,1,27,9.28Z"/></g></g></svg>
