<svg width="25" height="25" xmlns="http://www.w3.org/2000/svg" viewBox="0 0 25 25"><defs><style>.cls-1{fill:#2ae357;}</style></defs><title>open</title><g id="Layer_2" data-name="Layer 2"><g id="Desktop"><g id="Single_location" data-name="Single location"><path class="cls-1" d="M12.5,0A12.5,12.5,0,1,0,25,12.5,12.5,12.5,0,0,0,12.5,0Zm7.67,8.74-9.46,9.85h0a1.42,1.42,0,0,1-.14.16,1.4,1.4,0,0,1-.26.12l-.07,0a1.26,1.26,0,0,1-.41.09H9.69a1.32,1.32,0,0,1-.32-.06l-.22-.08-.2-.13a1.56,1.56,0,0,1-.17-.11.86.86,0,0,1-.08-.12l0,0L5.12,13.7a1.37,1.37,0,0,1,2.19-1.63l2.56,3.45L18.2,6.85a1.37,1.37,0,1,1,2,1.89Z"/></g></g></g></svg>
