<svg width="50" height="50" xmlns="http://www.w3.org/2000/svg" viewBox="0 0 238 317.33"><defs><style>.cls-1{fill:#84796f;}.cls-2{fill:#fff5e9;}</style></defs><title>park</title><g id="Layer_2" data-name="Layer 2"><g id="Assets"><path class="cls-1" d="M119,0A119,119,0,0,0,0,119c0,76.44,85.7,171.82,99.17,186.39,5.57,6,10.23,11.94,19.83,11.94s14.26-5.89,19.83-11.94C152.3,290.82,238,195.44,238,119A119,119,0,0,0,119,0Z"/><path class="cls-2" d="M189.5,126a56.39,56.39,0,0,1-11.72,33.61c-8.24,10-18.66,15.71-29.94,15.71a38,38,0,0,1-7.38-.87,32.73,32.73,0,0,1-9.48-3.31,4.32,4.32,0,0,0-6.44,4L128.1,238a4.33,4.33,0,0,1-4.32,4.57H110.19a4.33,4.33,0,0,1-4.32-4.56l3.77-70.76a4.33,4.33,0,0,0-5.7-4.33,71.75,71.75,0,0,1-21.64,3.71c-18.63,0-33.8-15.28-33.8-34.48a34,34,0,0,1,14.63-28.34,3.22,3.22,0,0,0,1.4-2.65c0-29.24,20.39-60.23,50.33-60.23,24.4,0,42.27,18.87,46.9,38.72a4.33,4.33,0,0,0,2.09,2.79A49.88,49.88,0,0,1,189.5,126Z"/></g></g></svg>
