<svg width="25" height="25" xmlns="http://www.w3.org/2000/svg" viewBox="0 0 25 23.97"><defs><style>.cls-1{fill:#84796f;}</style></defs><title>rating</title><g id="Layer_2" data-name="Layer 2"><g id="Desktop"><g id="Filtered_list" data-name="Filtered list"><path class="cls-1" d="M19,24a2.06,2.06,0,0,1-1-.24l-5.47-2.87L7,23.74a2.06,2.06,0,0,1-3-2.17l1-6.09L.62,11.12A2.06,2.06,0,0,1,1.77,7.6l6.11-.89,2.78-5.57a2.06,2.06,0,0,1,3.69,0l2.73,5.54,6.15.92a2.06,2.06,0,0,1,1.14,3.51L20,15.43l1,6.14a2,2,0,0,1-.82,2A2.07,2.07,0,0,1,19,24ZM2,9.68,6.44,14A2.06,2.06,0,0,1,7,15.82L6,21.9l.55.95L6.08,22l5.46-2.87a2.06,2.06,0,0,1,1.92,0L18.92,22,19,21.9l-1-6.09A2.06,2.06,0,0,1,18.56,14L23,9.68l0-.1-6.11-.89a2.06,2.06,0,0,1-1.55-1.13L12.55,2a0,0,0,0,0-.05,0L9.71,7.57A2.06,2.06,0,0,1,8.16,8.69l-6.11.89-.73.82Z"/></g></g></g></svg>
